<?xml version="1.0" encoding="UTF-8"?>
<svg width="371px" height="100px" viewBox="0 0 371 100" version="1.1" xmlns="http://www.w3.org/2000/svg" xmlns:xlink="http://www.w3.org/1999/xlink">
    <!-- Generator: Sketch 61.2 (89653) - https://sketch.com -->
    <title>skole icon</title>
    <desc>Created with Sketch.</desc>
    <g>
        <path id="skole" fill="#ad3636" fill-rule="nonzero" d="M30.0297852,99.2695312 C34.0922852,99.2695312 37.8374023,98.7828776 41.2651367,97.8095703 C44.6928711,96.836263 47.6339518,95.4609375 50.0883789,93.6835938 C52.542806,91.90625 54.4576823,89.7692057 55.8330078,87.2724609 C57.2083333,84.7757161 57.8959961,82.0039062 57.8959961,78.9570312 C57.8959961,76.1217448 57.2929688,73.625 56.0869141,71.4667969 C54.8808594,69.3085938 53.1352539,67.4148763 50.8500977,65.7856445 C48.5649414,64.1564128 45.7508138,62.7599284 42.4077148,61.5961914 C39.0646159,60.4324544 35.277181,59.40625 31.0454102,58.5175781 C27.8292643,57.8828125 25.1738281,57.226888 23.0791016,56.5498047 C20.984375,55.8727214 19.3128255,55.1110026 18.0644531,54.2646484 C16.8160807,53.4182943 15.9379883,52.4661458 15.4301758,51.4082031 C14.9223633,50.3502604 14.668457,49.1442057 14.668457,47.7900391 C14.668457,46.4781901 14.9858398,45.2086589 15.6206055,43.9814453 C16.2553711,42.7542318 17.1969401,41.6751302 18.4453125,40.7441406 C19.6936849,39.813151 21.2594401,39.0725911 23.1425781,38.5224609 C25.0257161,37.9723307 27.2156576,37.6972656 29.7124023,37.6972656 C32.1245117,37.6972656 34.2932943,38.0358073 36.21875,38.7128906 C38.1442057,39.389974 39.7840169,40.2786458 41.1381836,41.3789062 C42.4923503,42.4791667 43.550293,43.7381185 44.3120117,45.1557617 C45.0737305,46.5734049 45.4545898,48.0227865 45.4545898,49.5039062 L45.4545898,49.5039062 L57.1977539,49.5039062 C57.1977539,46.499349 56.5524089,43.6958008 55.2617188,41.0932617 C53.9710286,38.4907227 52.1407878,36.2161458 49.7709961,34.2695312 C47.4012044,32.3229167 44.5236003,30.7994792 41.1381836,29.6992188 C37.7527669,28.5989583 33.9441732,28.0488281 29.7124023,28.0488281 C25.7768555,28.0488281 22.1692708,28.5777995 18.8896484,29.6357422 C15.610026,30.6936849 12.785319,32.132487 10.4155273,33.9521484 C8.04573568,35.7718099 6.20491536,37.8982747 4.89306641,40.331543 C3.58121745,42.7648112 2.92529297,45.3779297 2.92529297,48.1708984 C2.92529297,51.0061849 3.56005859,53.4923503 4.82958984,55.6293945 C6.09912109,57.7664388 7.88704427,59.628418 10.1933594,61.215332 C12.4996745,62.8022461 15.2714844,64.1669922 18.5087891,65.3095703 C21.7460938,66.4521484 25.3325195,67.4254557 29.2680664,68.2294922 C32.4842122,68.8642578 35.1713867,69.5730794 37.3295898,70.355957 C39.487793,71.1388346 41.222819,71.9957682 42.534668,72.9267578 C43.8465169,73.8577474 44.7775065,74.8839518 45.3276367,76.0053711 C45.8777669,77.1267904 46.152832,78.3857422 46.152832,79.7822266 C46.1105143,82.7867839 44.6505534,85.1988932 41.7729492,87.0185547 C38.8953451,88.8382161 34.980957,89.7480469 30.0297852,89.7480469 C28.0408529,89.7480469 26.0307617,89.5364583 23.9995117,89.1132812 C21.9682617,88.6901042 20.116862,87.9707031 18.4453125,86.9550781 C16.773763,85.9394531 15.3772786,84.6064453 14.2558594,82.9560547 C13.1344401,81.3056641 12.4890951,79.2744141 12.3198242,76.8623047 L12.3198242,76.8623047 L0.576660156,76.8623047 C0.576660156,79.7822266 1.24316406,82.5963542 2.57617188,85.3046875 C3.90917969,88.0130208 5.83463542,90.3933919 8.35253906,92.4458008 C10.8704427,94.4982096 13.949056,96.1486003 17.5883789,97.3969727 C21.2277018,98.6453451 25.3748372,99.2695312 30.0297852,99.2695312 Z M90.4594727,98 L90.4594727,74.2597656 L99.0922852,65.9443359 L124.29248,98 L139.209473,98 L107.153809,57.9462891 L134.956543,29.3183594 L120.674316,29.3183594 L98.1401367,51.9160156 L90.4594727,60.1679687 L90.4594727,0.5 L78.652832,0.5 L78.652832,98 L90.4594727,98 Z M184.531738,99.2695312 C189.355957,99.2695312 193.693522,98.3808594 197.544434,96.6035156 C201.395345,94.8261719 204.664388,92.3717448 207.351562,89.2402344 C210.038737,86.108724 212.101725,82.4270833 213.540527,78.1953125 C214.979329,73.9635417 215.69873,69.3720703 215.69873,64.4208984 L215.69873,64.4208984 L215.69873,63.0244141 C215.69873,58.0732422 214.979329,53.4711914 213.540527,49.2182617 C212.101725,44.965332 210.038737,41.273112 207.351562,38.1416016 C204.664388,35.0100911 201.384766,32.5450846 197.512695,30.746582 C193.640625,28.9480794 189.271322,28.0488281 184.404785,28.0488281 C179.580566,28.0488281 175.243001,28.9480794 171.39209,30.746582 C167.541178,32.5450846 164.272135,35.0100911 161.584961,38.1416016 C158.897786,41.273112 156.834798,44.965332 155.395996,49.2182617 C153.957194,53.4711914 153.237793,58.0732422 153.237793,63.0244141 L153.237793,63.0244141 L153.237793,64.4208984 C153.237793,69.3720703 153.957194,73.9635417 155.395996,78.1953125 C156.834798,82.4270833 158.897786,86.108724 161.584961,89.2402344 C164.272135,92.3717448 167.551758,94.8261719 171.423828,96.6035156 C175.295898,98.3808594 179.665202,99.2695312 184.531738,99.2695312 Z M184.531738,89.7480469 C181.273275,89.7480469 178.416829,89.0709635 175.962402,87.7167969 C173.507975,86.3626302 171.466146,84.5218099 169.836914,82.1943359 C168.207682,79.866862 166.991048,77.1691081 166.187012,74.1010742 C165.382975,71.0330404 164.980957,67.8063151 164.980957,64.4208984 L164.980957,64.4208984 L164.980957,63.0244141 C164.980957,59.6813151 165.382975,56.4757487 166.187012,53.4077148 C166.991048,50.339681 168.207682,47.6419271 169.836914,45.3144531 C171.466146,42.9869792 173.486816,41.1355794 175.898926,39.7602539 C178.311035,38.3849284 181.146322,37.6972656 184.404785,37.6972656 C187.663249,37.6972656 190.509115,38.3849284 192.942383,39.7602539 C195.375651,41.1355794 197.406901,42.9869792 199.036133,45.3144531 C200.665365,47.6419271 201.892578,50.339681 202.717773,53.4077148 C203.542969,56.4757487 203.955566,59.6813151 203.955566,63.0244141 L203.955566,63.0244141 L203.955566,64.4208984 C203.955566,67.8063151 203.553548,71.0330404 202.749512,74.1010742 C201.945475,77.1691081 200.728841,79.866862 199.099609,82.1943359 C197.470378,84.5218099 195.439128,86.3626302 193.005859,87.7167969 C190.572591,89.0709635 187.747884,89.7480469 184.531738,89.7480469 Z M293.901855,98 L293.901855,87.84375 L271.494629,87.84375 L271.494629,0.5 L236.39209,0.5 L236.39209,10.7197266 L259.751465,10.7197266 L259.751465,87.84375 L236.39209,87.84375 L236.39209,98 L293.901855,98 Z M342.905762,99.2695312 C346.248861,99.2695312 349.338053,98.8992513 352.17334,98.1586914 C355.008626,97.4181315 357.547689,96.4342448 359.790527,95.2070312 C362.033366,93.9798177 364.011719,92.5727539 365.725586,90.9858398 C367.439453,89.3989258 368.867676,87.7379557 370.010254,86.0029297 L370.010254,86.0029297 L362.837402,80.4169922 C360.679199,83.2099609 357.970866,85.4527995 354.712402,87.1455078 C351.453939,88.8382161 347.72998,89.6845703 343.540527,89.6845703 C340.366699,89.6845703 337.467936,89.0921224 334.844238,87.9072266 C332.22054,86.7223307 329.967122,85.1036784 328.083984,83.0512695 C326.200846,80.9988607 324.719727,78.5973307 323.640625,75.8466797 C322.561523,73.0960286 321.958496,70.1549479 321.831543,67.0234375 L321.831543,67.0234375 L370.898926,67.0234375 L370.898926,61.7548828 C370.898926,56.9729818 370.295898,52.5296224 369.089844,48.4248047 C367.883789,44.319987 366.053548,40.7547201 363.599121,37.7290039 C361.144694,34.7032878 358.066081,32.3334961 354.363281,30.6196289 C350.660482,28.9057617 346.333496,28.0488281 341.382324,28.0488281 C337.446777,28.0488281 333.606445,28.8528646 329.861328,30.4609375 C326.116211,32.0690104 322.773112,34.3859049 319.832031,37.4116211 C316.890951,40.4373372 314.531738,44.1401367 312.754395,48.5200195 C310.977051,52.8999023 310.088379,57.8616536 310.088379,63.4052734 L310.088379,63.4052734 L310.088379,66.0712891 C310.088379,70.8531901 310.892415,75.2753906 312.500488,79.3378906 C314.108561,83.4003906 316.3514,86.9127604 319.229004,89.875 C322.106608,92.8372396 325.566081,95.1435547 329.607422,96.7939453 C333.648763,98.4443359 338.081543,99.2695312 342.905762,99.2695312 Z M359.155762,57.375 L322.212402,57.375 C322.677897,54.2011719 323.492513,51.3976237 324.65625,48.9643555 C325.819987,46.5310872 327.24821,44.4786784 328.940918,42.8071289 C330.633626,41.1355794 332.537923,39.8660482 334.653809,38.9985352 C336.769694,38.1310221 339.012533,37.6972656 341.382324,37.6972656 C344.386882,37.6972656 346.978841,38.2473958 349.158203,39.3476562 C351.337565,40.4479167 353.146647,41.8867188 354.585449,43.6640625 C356.024251,45.4414062 357.113932,47.4514974 357.854492,49.6943359 C358.595052,51.9371745 359.028809,54.2011719 359.155762,56.4863281 L359.155762,56.4863281 L359.155762,57.375 Z" />
    </g>
</svg>