<?xml version="1.0" encoding="UTF-8"?>
<svg width="416px" height="416px" viewBox="0 0 416 416" version="1.1" xmlns="http://www.w3.org/2000/svg" xmlns:xlink="http://www.w3.org/1999/xlink">
    <!-- Generator: Sketch 61.2 (89653) - https://sketch.com -->
    <title>Untitled</title>
    <desc>Created with Sketch.</desc>
    <g id="Page-1" stroke="none" stroke-width="1" fill="none" fill-rule="evenodd">
        <circle id="Oval" stroke="#979797" fill="#AD3636" cx="208" cy="208" r="207.5"></circle>
        <path d="M214.481445,344.882812 C230.106445,344.882812 244.510742,343.011068 257.694336,339.267578 C270.87793,335.524089 282.189779,330.234375 291.629883,323.398438 C301.069987,316.5625 308.434896,308.343099 313.724609,298.740234 C319.014323,289.13737 321.65918,278.476562 321.65918,266.757812 C321.65918,255.852865 319.339844,246.25 314.701172,237.949219 C310.0625,229.648438 303.348633,222.364909 294.55957,216.098633 C285.770508,209.832357 274.94694,204.461263 262.088867,199.985352 C249.230794,195.50944 234.663737,191.5625 218.387695,188.144531 C206.017904,185.703125 195.804688,183.180339 187.748047,180.576172 C179.691406,177.972005 173.26237,175.042318 168.460938,171.787109 C163.659505,168.531901 160.282227,164.869792 158.329102,160.800781 C156.375977,156.731771 155.399414,152.093099 155.399414,146.884766 C155.399414,141.839193 156.620117,136.95638 159.061523,132.236328 C161.50293,127.516276 165.124349,123.365885 169.925781,119.785156 C174.727214,116.204427 180.749349,113.35612 187.992188,111.240234 C195.235026,109.124349 203.657878,108.066406 213.260742,108.066406 C222.538086,108.066406 230.879557,109.36849 238.285156,111.972656 C245.690755,114.576823 251.997721,117.994792 257.206055,122.226562 C262.414388,126.458333 266.483398,131.300456 269.413086,136.75293 C272.342773,142.205404 273.807617,147.779948 273.807617,153.476562 L273.807617,153.476562 L318.973633,153.476562 C318.973633,141.920573 316.491536,131.137695 311.527344,121.12793 C306.563151,111.118164 299.523763,102.369792 290.40918,94.8828125 C281.294596,87.3958333 270.226888,81.5364583 257.206055,77.3046875 C244.185221,73.0729167 229.536784,70.9570312 213.260742,70.9570312 C198.124023,70.9570312 184.248698,72.9915365 171.634766,77.0605469 C159.020833,81.1295573 148.156576,86.6634115 139.041992,93.6621094 C129.927409,100.660807 122.847331,108.839518 117.801758,118.198242 C112.756185,127.556966 110.233398,137.607422 110.233398,148.349609 C110.233398,159.254557 112.674805,168.816732 117.557617,177.036133 C122.44043,185.255534 129.317057,192.416992 138.1875,198.520508 C147.057943,204.624023 157.71875,209.873047 170.169922,214.267578 C182.621094,218.662109 196.415039,222.405599 211.551758,225.498047 C223.921549,227.939453 234.256836,230.66569 242.557617,233.676758 C250.858398,236.687826 257.531576,239.983724 262.577148,243.564453 C267.622721,247.145182 271.203451,251.092122 273.319336,255.405273 C275.435221,259.718424 276.493164,264.560547 276.493164,269.931641 C276.330404,281.48763 270.715169,290.764974 259.647461,297.763672 C248.579753,304.76237 233.524414,308.261719 214.481445,308.261719 C206.831706,308.261719 199.100586,307.447917 191.288086,305.820312 C183.475586,304.192708 176.354818,301.425781 169.925781,297.519531 C163.496745,293.613281 158.125651,288.486328 153.8125,282.138672 C149.499349,275.791016 147.017253,267.978516 146.366211,258.701172 L146.366211,258.701172 L101.200195,258.701172 C101.200195,269.931641 103.763672,280.755208 108.890625,291.171875 C114.017578,301.588542 121.423177,310.743815 131.107422,318.637695 C140.791667,326.531576 152.632487,332.879232 166.629883,337.680664 C180.627279,342.482096 196.577799,344.882812 214.481445,344.882812 Z" id="s" fill="#FAF2DE" fill-rule="nonzero"></path>
    </g>
</svg>