<?xml version="1.0" standalone="no"?>
<!DOCTYPE svg PUBLIC "-//W3C//DTD SVG 20010904//EN"
 "http://www.w3.org/TR/2001/REC-SVG-20010904/DTD/svg10.dtd">
<svg version="1.0" xmlns="http://www.w3.org/2000/svg"
 width="700.000000pt" height="700.000000pt" viewBox="0 0 700.000000 700.000000"
 preserveAspectRatio="xMidYMid meet">
<metadata>
Created by potrace 1.11, written by Peter Selinger 2001-2013
</metadata>
<g transform="translate(0.000000,700.000000) scale(0.100000,-0.100000)"
fill="#000000" stroke="none">
<path d="M3255 6994 c-548 -45 -1048 -198 -1501 -460 -1088 -628 -1754 -1780
-1754 -3034 0 -1175 585 -2264 1565 -2915 464 -308 940 -484 1520 -562 183
-24 647 -24 830 0 231 31 393 66 602 128 756 226 1431 724 1882 1389 537 791
725 1768 520 2710 -170 786 -625 1509 -1261 2007 -492 385 -1076 630 -1698
713 -150 20 -574 34 -705 24z m-1265 -2979 l0 -475 241 245 242 245 116 0 116
0 -155 -157 c-85 -87 -185 -190 -222 -228 l-68 -70 256 -320 256 -320 -108 -3
c-59 -1 -113 -1 -120 2 -7 3 -101 117 -209 255 -108 138 -199 251 -202 251 -3
0 -36 -28 -74 -61 l-69 -62 0 -193 0 -194 -90 0 -90 0 0 780 0 780 90 0 90 0
0 -475z m2900 -220 l0 -695 180 0 180 0 0 -85 0 -85 -457 2 -458 3 0 80 0 80
188 3 187 2 0 615 0 615 -187 2 -188 3 -3 78 -3 77 281 0 280 0 0 -695z
m-3738 244 c161 -34 283 -148 304 -286 l7 -43 -97 0 c-93 0 -96 1 -96 23 0 59
-84 136 -171 157 -70 17 -168 8 -226 -21 -60 -30 -93 -78 -93 -135 0 -83 61
-123 256 -169 298 -69 416 -151 431 -297 16 -159 -100 -293 -296 -338 -68 -16
-225 -16 -294 0 -172 40 -299 160 -320 303 l-6 37 94 0 93 0 7 -32 c25 -119
168 -189 342 -168 127 16 193 71 193 161 0 91 -59 129 -292 188 -288 72 -392
155 -392 311 0 144 103 258 277 305 64 17 207 19 279 4z m2483 -5 c233 -60
378 -300 361 -594 -10 -168 -59 -293 -153 -387 -183 -183 -509 -182 -688 2
-174 178 -206 555 -66 774 40 61 125 142 179 170 99 50 253 65 367 35z m2504
5 c111 -25 220 -108 274 -208 37 -68 64 -177 72 -299 l8 -102 -398 0 -397 0 7
-47 c19 -131 96 -238 206 -288 56 -25 69 -27 158 -23 112 5 177 31 247 100
l42 40 56 -42 c65 -49 64 -53 -12 -121 -103 -93 -209 -130 -367 -130 -213 0
-377 97 -462 273 -45 92 -57 157 -56 293 1 102 5 132 27 199 60 178 164 288
324 343 74 25 193 30 271 12z"/>
<path d="M3407 3886 c-87 -32 -157 -107 -193 -206 -22 -61 -31 -264 -14 -339
39 -175 147 -273 302 -273 192 0 308 155 308 412 0 191 -66 331 -185 392 -51
27 -165 34 -218 14z"/>
<path d="M5940 3891 c-115 -36 -206 -143 -226 -269 l-7 -42 298 0 298 0 -7 53
c-9 70 -59 169 -103 206 -64 53 -175 75 -253 52z"/>
</g>
</svg>
