<?xml version="1.0" encoding="UTF-8"?>
<svg width="420px" height="420px" viewBox="0 0 420 420" version="1.1" xmlns="http://www.w3.org/2000/svg" xmlns:xlink="http://www.w3.org/1999/xlink">
    <!-- Generator: Sketch 61.2 (89653) - https://sketch.com -->
    <title>Untitled</title>
    <desc>Created with Sketch.</desc>
    <g id="Page-1" stroke="none" stroke-width="1" fill="none" fill-rule="evenodd">
        <circle id="Oval" fill="#AD3636" cx="210" cy="210" r="210"></circle>
        <path d="M61.4709473,245.220703 C65.3771973,245.220703 68.9782715,244.752767 72.2741699,243.816895 C75.5700684,242.881022 78.3980306,241.558594 80.7580566,239.849609 C83.1180827,238.140625 84.9593099,236.085775 86.2817383,233.685059 C87.6041667,231.284342 88.2653809,228.619141 88.2653809,225.689453 C88.2653809,222.963216 87.6855469,220.5625 86.5258789,218.487305 C85.3662109,216.412109 83.6877441,214.591227 81.4904785,213.024658 C79.2932129,211.458089 76.587321,210.115316 73.3728027,208.996338 C70.1582845,207.87736 66.5165202,206.890625 62.4475098,206.036133 C59.3550618,205.425781 56.8017578,204.795085 54.7875977,204.144043 C52.7734375,203.493001 51.1661784,202.760579 49.9658203,201.946777 C48.7654622,201.132975 47.9211426,200.217448 47.4328613,199.200195 C46.9445801,198.182943 46.7004395,197.023275 46.7004395,195.721191 C46.7004395,194.459798 47.0056152,193.239095 47.6159668,192.059082 C48.2263184,190.879069 49.1316732,189.841471 50.3320312,188.946289 C51.5323893,188.051107 53.0379232,187.33903 54.8486328,186.810059 C56.6593424,186.281087 58.7650553,186.016602 61.1657715,186.016602 C63.4851074,186.016602 65.5704753,186.342122 67.421875,186.993164 C69.2732747,187.644206 70.8500163,188.498698 72.1520996,189.556641 C73.4541829,190.614583 74.4714355,191.825114 75.2038574,193.188232 C75.9362793,194.551351 76.3024902,195.944987 76.3024902,197.369141 L76.3024902,197.369141 L87.5939941,197.369141 C87.5939941,194.480143 86.9734701,191.784424 85.7324219,189.281982 C84.4913737,186.779541 82.7315267,184.592448 80.4528809,182.720703 C78.174235,180.848958 75.4073079,179.384115 72.1520996,178.326172 C68.8968913,177.268229 65.2347819,176.739258 61.1657715,176.739258 C57.3815918,176.739258 53.9127604,177.247884 50.7592773,178.265137 C47.6057943,179.282389 44.8897298,180.665853 42.611084,182.415527 C40.3324382,184.165202 38.5624186,186.20988 37.3010254,188.549561 C36.0396322,190.889242 35.4089355,193.401855 35.4089355,196.087402 C35.4089355,198.813639 36.0192871,201.204183 37.2399902,203.259033 C38.4606934,205.313883 40.1798503,207.104248 42.3974609,208.630127 C44.6150716,210.156006 47.2802734,211.468262 50.3930664,212.566895 C53.5058594,213.665527 56.9543457,214.6014 60.7385254,215.374512 C63.8309733,215.984863 66.4147949,216.666423 68.4899902,217.419189 C70.5651855,218.171956 72.2334798,218.995931 73.494873,219.891113 C74.7562663,220.786296 75.6514486,221.773031 76.1804199,222.851318 C76.7093913,223.929606 76.973877,225.140137 76.973877,226.48291 C76.9331868,229.371908 75.5293783,231.691243 72.7624512,233.440918 C69.9955241,235.190592 66.2316895,236.06543 61.4709473,236.06543 C59.5585124,236.06543 57.6257324,235.861979 55.6726074,235.455078 C53.7194824,235.048177 51.9392904,234.356445 50.3320312,233.379883 C48.7247721,232.40332 47.3819987,231.121582 46.3037109,229.534668 C45.2254232,227.947754 44.6048991,225.994629 44.4421387,223.675293 L44.4421387,223.675293 L33.1506348,223.675293 C33.1506348,226.48291 33.7915039,229.188802 35.0732422,231.792969 C36.3549805,234.397135 38.2063802,236.685954 40.6274414,238.659424 C43.0485026,240.632894 46.0087077,242.219808 49.5080566,243.420166 C53.0074056,244.620524 56.9950358,245.220703 61.4709473,245.220703 Z M119.576416,244 L119.576416,221.172852 L127.877197,213.177246 L152.108154,244 L166.451416,244 L135.628662,205.486816 L162.362061,177.959961 L148.62915,177.959961 L126.96167,199.688477 L119.576416,207.623047 L119.576416,150.25 L108.223877,150.25 L108.223877,244 L119.576416,244 Z M210.030518,245.220703 C214.669189,245.220703 218.839925,244.366211 222.542725,242.657227 C226.245524,240.948242 229.388835,238.588216 231.972656,235.577148 C234.556478,232.566081 236.54012,229.026042 237.923584,224.957031 C239.307048,220.888021 239.998779,216.473145 239.998779,211.712402 L239.998779,211.712402 L239.998779,210.369629 C239.998779,205.608887 239.307048,201.183838 237.923584,197.094482 C236.54012,193.005127 234.556478,189.454915 231.972656,186.443848 C229.388835,183.43278 226.235352,181.062581 222.512207,179.333252 C218.789062,177.603923 214.587809,176.739258 209.908447,176.739258 C205.269775,176.739258 201.09904,177.603923 197.39624,179.333252 C193.693441,181.062581 190.55013,183.43278 187.966309,186.443848 C185.382487,189.454915 183.398844,193.005127 182.015381,197.094482 C180.631917,201.183838 179.940186,205.608887 179.940186,210.369629 L179.940186,210.369629 L179.940186,211.712402 C179.940186,216.473145 180.631917,220.888021 182.015381,224.957031 C183.398844,229.026042 185.382487,232.566081 187.966309,235.577148 C190.55013,238.588216 193.703613,240.948242 197.426758,242.657227 C201.149902,244.366211 205.351156,245.220703 210.030518,245.220703 Z M210.030518,236.06543 C206.89738,236.06543 204.150798,235.414388 201.790771,234.112305 C199.430745,232.810221 197.467448,231.040202 195.900879,228.802246 C194.33431,226.56429 193.164469,223.970296 192.391357,221.020264 C191.618245,218.070231 191.231689,214.967611 191.231689,211.712402 L191.231689,211.712402 L191.231689,210.369629 C191.231689,207.155111 191.618245,204.072835 192.391357,201.122803 C193.164469,198.17277 194.33431,195.578776 195.900879,193.34082 C197.467448,191.102865 199.4104,189.322673 201.729736,188.000244 C204.049072,186.677816 206.775309,186.016602 209.908447,186.016602 C213.041585,186.016602 215.777995,186.677816 218.117676,188.000244 C220.457357,189.322673 222.410482,191.102865 223.977051,193.34082 C225.54362,195.578776 226.723633,198.17277 227.51709,201.122803 C228.310547,204.072835 228.707275,207.155111 228.707275,210.369629 L228.707275,210.369629 L228.707275,211.712402 C228.707275,214.967611 228.320719,218.070231 227.547607,221.020264 C226.774495,223.970296 225.604655,226.56429 224.038086,228.802246 C222.471517,231.040202 220.518392,232.810221 218.178711,234.112305 C215.83903,235.414388 213.122965,236.06543 210.030518,236.06543 Z M315.194092,244 L315.194092,234.234375 L293.648682,234.234375 L293.648682,150.25 L259.89624,150.25 L259.89624,160.07666 L282.357178,160.07666 L282.357178,234.234375 L259.89624,234.234375 L259.89624,244 L315.194092,244 Z M362.313232,245.220703 C365.527751,245.220703 368.498128,244.864665 371.224365,244.152588 C373.950602,243.440511 376.392008,242.494466 378.548584,241.314453 C380.70516,240.13444 382.607422,238.781494 384.255371,237.255615 C385.90332,235.729736 387.276611,234.13265 388.375244,232.464355 L388.375244,232.464355 L381.478271,227.093262 C379.403076,229.778809 376.79891,231.935384 373.665771,233.562988 C370.532633,235.190592 366.951904,236.004395 362.923584,236.004395 C359.871826,236.004395 357.084554,235.434733 354.561768,234.29541 C352.038981,233.156087 349.872233,231.599691 348.061523,229.626221 C346.250814,227.652751 344.82666,225.343587 343.789062,222.69873 C342.751465,220.053874 342.171631,217.225911 342.049561,214.214844 L342.049561,214.214844 L389.229736,214.214844 L389.229736,209.148926 C389.229736,204.550944 388.649902,200.278483 387.490234,196.331543 C386.330566,192.384603 384.570719,188.956462 382.210693,186.047119 C379.850667,183.137777 376.890462,180.859131 373.330078,179.211182 C369.769694,177.563232 365.609131,176.739258 360.848389,176.739258 C357.064209,176.739258 353.371582,177.51237 349.770508,179.058594 C346.169434,180.604818 342.954915,182.832601 340.126953,185.741943 C337.298991,188.651286 335.030518,192.21167 333.321533,196.423096 C331.612549,200.634521 330.758057,205.405436 330.758057,210.73584 L330.758057,210.73584 L330.758057,213.299316 C330.758057,217.897298 331.531169,222.149414 333.077393,226.055664 C334.623617,229.961914 336.780192,233.339193 339.547119,236.1875 C342.314046,239.035807 345.640462,241.253418 349.526367,242.840332 C353.412272,244.427246 357.674561,245.220703 362.313232,245.220703 Z M377.938232,204.9375 L342.415771,204.9375 C342.863363,201.885742 343.646647,199.190023 344.765625,196.850342 C345.884603,194.510661 347.257894,192.537191 348.885498,190.929932 C350.513102,189.322673 352.344157,188.101969 354.378662,187.267822 C356.413167,186.433675 358.569743,186.016602 360.848389,186.016602 C363.737386,186.016602 366.229655,186.545573 368.325195,187.603516 C370.420736,188.661458 372.160238,190.044922 373.543701,191.753906 C374.927165,193.462891 375.974935,195.395671 376.687012,197.552246 C377.399089,199.708822 377.816162,201.885742 377.938232,204.083008 L377.938232,204.083008 L377.938232,204.9375 Z" id="skole" fill="#FAF2DE" fill-rule="nonzero"></path>
    </g>
</svg>